<?xml version="1.0" encoding="utf-8"?>
<!-- Generator: Adobe Illustrator 28.1.0, SVG Export Plug-In . SVG Version: 6.00 Build 0)  -->
<svg version="1.1" id="Layer_1" xmlns="http://www.w3.org/2000/svg" xmlns:xlink="http://www.w3.org/1999/xlink" x="0px" y="0px"
	 viewBox="0 0 792 200" style="enable-background:new 0 0 792 200;" xml:space="preserve">
<style type="text/css">
	.st0{fill-rule:evenodd;clip-rule:evenodd;fill:#DB7193;}
	.st1{fill:none;stroke:#DB7193;stroke-miterlimit:10;}
	.st2{fill-rule:evenodd;clip-rule:evenodd;fill:#ED2224;}
	.st3{fill:none;stroke:#ED2224;stroke-miterlimit:10;}
	.st4{fill:none;stroke:#010101;stroke-miterlimit:10;}
	.st5{fill:#010101;}
	.st6{font-family:'Helvetica';}
	.st7{font-size:6px;}
</style>
<rect x="141.37" y="66.77" class="st0" width="29.13" height="4.86"/>
<rect x="141.37" y="66.77" class="st1" width="29.13" height="4.86"/>
<rect x="141.37" y="66.77" class="st2" width="1.73" height="4.86"/>
<rect x="141.37" y="66.77" class="st3" width="1.73" height="4.86"/>
<rect x="168.76" y="66.77" class="st2" width="1.73" height="4.86"/>
<rect x="168.76" y="66.77" class="st3" width="1.73" height="4.86"/>
<rect x="163.34" y="71.63" class="st0" width="30.29" height="4.86"/>
<rect x="163.34" y="71.63" class="st1" width="30.29" height="4.86"/>
<rect x="163.34" y="71.63" class="st2" width="1.73" height="4.86"/>
<rect x="163.34" y="71.63" class="st3" width="1.73" height="4.86"/>
<rect x="191.53" y="71.63" class="st2" width="2.1" height="4.86"/>
<rect x="191.53" y="71.63" class="st3" width="2.1" height="4.86"/>
<rect x="187.12" y="66.77" class="st0" width="28.69" height="4.86"/>
<rect x="187.12" y="66.77" class="st1" width="28.69" height="4.86"/>
<rect x="187.12" y="66.77" class="st2" width="1.37" height="4.86"/>
<rect x="187.12" y="66.77" class="st3" width="1.37" height="4.86"/>
<rect x="214.3" y="66.77" class="st2" width="1.52" height="4.86"/>
<rect x="214.3" y="66.77" class="st3" width="1.52" height="4.86"/>
<rect x="206.63" y="71.63" class="st0" width="29.49" height="4.86"/>
<rect x="206.63" y="71.63" class="st1" width="29.49" height="4.86"/>
<rect x="206.63" y="71.63" class="st2" width="1.95" height="4.86"/>
<rect x="206.63" y="71.63" class="st3" width="1.95" height="4.86"/>
<rect x="234.46" y="71.63" class="st2" width="1.66" height="4.86"/>
<rect x="234.46" y="71.63" class="st3" width="1.66" height="4.86"/>
<rect x="229.62" y="66.77" class="st0" width="29.56" height="4.86"/>
<rect x="229.62" y="66.77" class="st1" width="29.56" height="4.86"/>
<rect x="229.62" y="66.77" class="st2" width="2.1" height="4.86"/>
<rect x="229.62" y="66.77" class="st3" width="2.1" height="4.86"/>
<rect x="257.59" y="66.77" class="st2" width="1.59" height="4.86"/>
<rect x="257.59" y="66.77" class="st3" width="1.59" height="4.86"/>
<rect x="253.18" y="71.63" class="st0" width="28.62" height="4.86"/>
<rect x="253.18" y="71.63" class="st1" width="28.62" height="4.86"/>
<rect x="253.18" y="71.63" class="st2" width="1.52" height="4.86"/>
<rect x="253.18" y="71.63" class="st3" width="1.52" height="4.86"/>
<rect x="280" y="71.63" class="st2" width="1.81" height="4.86"/>
<rect x="280" y="71.63" class="st3" width="1.81" height="4.86"/>
<rect x="275.3" y="66.77" class="st0" width="28.33" height="4.86"/>
<rect x="275.3" y="66.77" class="st1" width="28.33" height="4.86"/>
<rect x="275.3" y="66.77" class="st2" width="1.52" height="4.86"/>
<rect x="275.3" y="66.77" class="st3" width="1.52" height="4.86"/>
<rect x="302.12" y="66.77" class="st2" width="1.52" height="4.86"/>
<rect x="302.12" y="66.77" class="st3" width="1.52" height="4.86"/>
<rect x="291.78" y="71.63" class="st0" width="29.63" height="4.86"/>
<rect x="291.78" y="71.63" class="st1" width="29.63" height="4.86"/>
<rect x="291.78" y="71.63" class="st2" width="2.02" height="4.86"/>
<rect x="291.78" y="71.63" class="st3" width="2.02" height="4.86"/>
<rect x="319.39" y="71.63" class="st2" width="2.02" height="4.86"/>
<rect x="319.39" y="71.63" class="st3" width="2.02" height="4.86"/>
<rect x="314.76" y="66.77" class="st0" width="29.2" height="4.86"/>
<rect x="314.76" y="66.77" class="st1" width="29.2" height="4.86"/>
<rect x="314.76" y="66.77" class="st2" width="1.66" height="4.86"/>
<rect x="314.76" y="66.77" class="st3" width="1.66" height="4.86"/>
<rect x="342.45" y="66.77" class="st2" width="1.52" height="4.86"/>
<rect x="342.45" y="66.77" class="st3" width="1.52" height="4.86"/>
<rect x="337.24" y="71.63" class="st0" width="29.56" height="4.86"/>
<rect x="337.24" y="71.63" class="st1" width="29.56" height="4.86"/>
<rect x="337.24" y="71.63" class="st2" width="1.52" height="4.86"/>
<rect x="337.24" y="71.63" class="st3" width="1.52" height="4.86"/>
<rect x="365" y="71.63" class="st2" width="1.81" height="4.86"/>
<rect x="365" y="71.63" class="st3" width="1.81" height="4.86"/>
<rect x="359.58" y="66.77" class="st0" width="29.49" height="4.86"/>
<rect x="359.58" y="66.77" class="st1" width="29.49" height="4.86"/>
<rect x="359.58" y="66.77" class="st2" width="1.73" height="4.86"/>
<rect x="359.58" y="66.77" class="st3" width="1.73" height="4.86"/>
<rect x="387.55" y="66.77" class="st2" width="1.52" height="4.86"/>
<rect x="387.55" y="66.77" class="st3" width="1.52" height="4.86"/>
<rect x="382.27" y="71.63" class="st0" width="29.92" height="4.86"/>
<rect x="382.27" y="71.63" class="st1" width="29.92" height="4.86"/>
<rect x="382.27" y="71.63" class="st2" width="1.88" height="4.86"/>
<rect x="382.27" y="71.63" class="st3" width="1.88" height="4.86"/>
<rect x="410.1" y="71.63" class="st2" width="2.1" height="4.86"/>
<rect x="410.1" y="71.63" class="st3" width="2.1" height="4.86"/>
<rect x="394.56" y="66.77" class="st0" width="28.98" height="4.86"/>
<rect x="394.56" y="66.77" class="st1" width="28.98" height="4.86"/>
<rect x="394.56" y="66.77" class="st2" width="1.73" height="4.86"/>
<rect x="394.56" y="66.77" class="st3" width="1.73" height="4.86"/>
<rect x="422.1" y="66.77" class="st2" width="1.45" height="4.86"/>
<rect x="422.1" y="66.77" class="st3" width="1.45" height="4.86"/>
<rect x="418.27" y="71.63" class="st0" width="29.71" height="4.86"/>
<rect x="418.27" y="71.63" class="st1" width="29.71" height="4.86"/>
<rect x="418.27" y="71.63" class="st2" width="2.02" height="4.86"/>
<rect x="418.27" y="71.63" class="st3" width="2.02" height="4.86"/>
<rect x="446.1" y="71.63" class="st2" width="1.88" height="4.86"/>
<rect x="446.1" y="71.63" class="st3" width="1.88" height="4.86"/>
<rect x="441.33" y="66.77" class="st0" width="29.06" height="4.86"/>
<rect x="441.33" y="66.77" class="st1" width="29.06" height="4.86"/>
<rect x="441.33" y="66.77" class="st2" width="1.95" height="4.86"/>
<rect x="441.33" y="66.77" class="st3" width="1.95" height="4.86"/>
<rect x="468.86" y="66.77" class="st2" width="1.52" height="4.86"/>
<rect x="468.86" y="66.77" class="st3" width="1.52" height="4.86"/>
<rect x="460.84" y="71.63" class="st0" width="28.7" height="4.86"/>
<rect x="460.84" y="71.63" class="st1" width="28.7" height="4.86"/>
<rect x="460.84" y="71.63" class="st2" width="1.52" height="4.86"/>
<rect x="460.84" y="71.63" class="st3" width="1.52" height="4.86"/>
<rect x="488.02" y="71.63" class="st2" width="1.52" height="4.86"/>
<rect x="488.02" y="71.63" class="st3" width="1.52" height="4.86"/>
<rect x="473.71" y="66.77" class="st0" width="28.55" height="4.86"/>
<rect x="473.71" y="66.77" class="st1" width="28.55" height="4.86"/>
<rect x="473.71" y="66.77" class="st2" width="1.66" height="4.86"/>
<rect x="473.71" y="66.77" class="st3" width="1.66" height="4.86"/>
<rect x="500.74" y="66.77" class="st2" width="1.52" height="4.86"/>
<rect x="500.74" y="66.77" class="st3" width="1.52" height="4.86"/>
<rect x="494.52" y="71.63" class="st0" width="30.14" height="4.86"/>
<rect x="494.52" y="71.63" class="st1" width="30.14" height="4.86"/>
<rect x="494.52" y="71.63" class="st2" width="1.45" height="4.86"/>
<rect x="494.52" y="71.63" class="st3" width="1.45" height="4.86"/>
<rect x="523" y="71.63" class="st2" width="1.66" height="4.86"/>
<rect x="523" y="71.63" class="st3" width="1.66" height="4.86"/>
<rect x="515.63" y="66.77" class="st0" width="29.13" height="4.86"/>
<rect x="515.63" y="66.77" class="st1" width="29.13" height="4.86"/>
<rect x="515.63" y="66.77" class="st2" width="1.52" height="4.86"/>
<rect x="515.63" y="66.77" class="st3" width="1.52" height="4.86"/>
<rect x="542.95" y="66.77" class="st2" width="1.81" height="4.86"/>
<rect x="542.95" y="66.77" class="st3" width="1.81" height="4.86"/>
<rect x="537.67" y="71.63" class="st0" width="30.14" height="4.86"/>
<rect x="537.67" y="71.63" class="st1" width="30.14" height="4.86"/>
<rect x="537.67" y="71.63" class="st2" width="2.1" height="4.86"/>
<rect x="537.67" y="71.63" class="st3" width="2.1" height="4.86"/>
<rect x="565.79" y="71.63" class="st2" width="2.02" height="4.86"/>
<rect x="565.79" y="71.63" class="st3" width="2.02" height="4.86"/>
<rect x="561.38" y="66.77" class="st0" width="29.27" height="4.86"/>
<rect x="561.38" y="66.77" class="st1" width="29.27" height="4.86"/>
<rect x="561.38" y="66.77" class="st2" width="1.73" height="4.86"/>
<rect x="561.38" y="66.77" class="st3" width="1.73" height="4.86"/>
<rect x="589.06" y="66.77" class="st2" width="1.59" height="4.86"/>
<rect x="589.06" y="66.77" class="st3" width="1.59" height="4.86"/>
<rect x="584.44" y="71.63" class="st0" width="29.49" height="4.86"/>
<rect x="584.44" y="71.63" class="st1" width="29.49" height="4.86"/>
<rect x="584.44" y="71.63" class="st2" width="1.73" height="4.86"/>
<rect x="584.44" y="71.63" class="st3" width="1.73" height="4.86"/>
<rect x="611.83" y="71.63" class="st2" width="2.1" height="4.86"/>
<rect x="611.83" y="71.63" class="st3" width="2.1" height="4.86"/>
<rect x="605.98" y="66.77" class="st0" width="28.91" height="4.86"/>
<rect x="605.98" y="66.77" class="st1" width="28.91" height="4.86"/>
<rect x="605.98" y="66.77" class="st2" width="1.81" height="4.86"/>
<rect x="605.98" y="66.77" class="st3" width="1.81" height="4.86"/>
<rect x="633.16" y="66.77" class="st2" width="1.73" height="4.86"/>
<rect x="633.16" y="66.77" class="st3" width="1.73" height="4.86"/>
<rect x="632.07" y="71.63" class="st0" width="15.83" height="4.86"/>
<rect x="632.07" y="71.63" class="st1" width="15.83" height="4.86"/>
<rect x="632.07" y="71.63" class="st2" width="1.52" height="4.86"/>
<rect x="632.07" y="71.63" class="st3" width="1.52" height="4.86"/>
<line class="st4" x1="107.9" y1="71.63" x2="647.9" y2="71.63"/>
<line class="st4" x1="107.9" y1="76.49" x2="107.9" y2="66.77"/>
<text transform="matrix(1 0 0 1 155.93 66.7726)" class="st5 st6 st7">1</text>
<text transform="matrix(1 0 0 1 178.4812 76.4926)" class="st5 st6 st7">2</text>
<text transform="matrix(1 0 0 1 201.4661 66.7726)" class="st5 st6 st7">3</text>
<text transform="matrix(1 0 0 1 221.3791 76.4926)" class="st5 st6 st7">4</text>
<text transform="matrix(1 0 0 1 244.4001 66.7726)" class="st5 st6 st7">5</text>
<text transform="matrix(1 0 0 1 267.4934 76.4926)" class="st5 st6 st7">6</text>
<text transform="matrix(1 0 0 1 289.4664 66.7726)" class="st5 st6 st7">7</text>
<text transform="matrix(1 0 0 1 306.5966 76.4926)" class="st5 st6 st7">8</text>
<text transform="matrix(1 0 0 1 329.3646 66.7726)" class="st5 st6 st7">9</text>
<text transform="matrix(1 0 0 1 352.0242 76.4926)" class="st5 st6 st7">10</text>
<text transform="matrix(1 0 0 1 374.3225 66.7726)" class="st5 st6 st7">11</text>
<text transform="matrix(1 0 0 1 397.2351 76.4926)" class="st5 st6 st7">12</text>
<text transform="matrix(1 0 0 1 409.0528 66.7726)" class="st5 st6 st7">13</text>
<text transform="matrix(1 0 0 1 433.1218 76.4926)" class="st5 st6 st7">14</text>
<text transform="matrix(1 0 0 1 455.8537 66.7726)" class="st5 st6 st7">15</text>
<text transform="matrix(1 0 0 1 475.1885 76.4926)" class="st5 st6 st7">16</text>
<text transform="matrix(1 0 0 1 487.9819 66.7726)" class="st5 st6 st7">17</text>
<text transform="matrix(1 0 0 1 509.5935 76.4926)" class="st5 st6 st7">18</text>
<text transform="matrix(1 0 0 1 530.1932 66.7726)" class="st5 st6 st7">19</text>
<text transform="matrix(1 0 0 1 552.7444 76.4926)" class="st5 st6 st7">20</text>
<text transform="matrix(1 0 0 1 576.0184 66.7726)" class="st5 st6 st7">21</text>
<text transform="matrix(1 0 0 1 599.184 76.4926)" class="st5 st6 st7">22</text>
<text transform="matrix(1 0 0 1 620.4341 66.7726)" class="st5 st6 st7">23</text>
<text transform="matrix(1 0 0 1 639.9857 76.4926)" class="st5 st6 st7">24</text>
<g>
	<rect x="144.79" y="72.55" class="st2" width="2.03" height="4.86"/>
	<rect x="109.53" y="72.55" class="st0" width="37.48" height="4.86"/>
	<rect x="109.71" y="72.55" class="st1" width="37.11" height="4.86"/>
	<rect x="109.71" y="72.55" class="st3" width="2.03" height="4.86"/>
	<rect x="144.79" y="72.55" class="st3" width="2.03" height="4.86"/>
	<rect x="144.79" y="72.55" class="st2" width="2.03" height="4.86"/>
	<rect x="109.71" y="72.55" class="st2" width="2.03" height="4.86"/>
</g>
<rect x="121.16" y="72.55" class="st3" width="1.73" height="4.86"/>
<rect x="121.16" y="72.55" class="st2" width="1.73" height="4.86"/>
<text transform="matrix(1 0 0 1 128.2646 76.4926)" class="st5 st6 st7">51</text>
<g>
	<rect x="661.6" y="96.38" class="st2" width="1.59" height="4.86"/>
	<rect x="633.91" y="96.38" class="st0" width="29.42" height="4.86"/>
	<rect x="634.06" y="96.38" class="st1" width="29.13" height="4.86"/>
	<rect x="634.06" y="96.38" class="st3" width="1.59" height="4.86"/>
	<rect x="661.6" y="96.38" class="st3" width="1.59" height="4.86"/>
	<rect x="661.6" y="96.38" class="st2" width="1.59" height="4.86"/>
	<rect x="634.06" y="96.38" class="st2" width="1.59" height="4.86"/>
</g>
<rect x="107.62" y="95.81" class="st0" width="13.15" height="4.86"/>
<rect x="107.62" y="95.81" class="st1" width="13.15" height="4.86"/>
<rect x="119.4" y="95.81" class="st2" width="1.37" height="4.86"/>
<rect x="119.4" y="95.81" class="st3" width="1.37" height="4.86"/>
<rect x="113.69" y="90.95" class="st0" width="29.2" height="4.86"/>
<rect x="113.69" y="90.95" class="st1" width="29.2" height="4.86"/>
<rect x="113.69" y="90.95" class="st2" width="1.52" height="4.86"/>
<rect x="113.69" y="90.95" class="st3" width="1.52" height="4.86"/>
<rect x="140.73" y="90.95" class="st2" width="2.17" height="4.86"/>
<rect x="140.73" y="90.95" class="st3" width="2.17" height="4.86"/>
<rect x="135.88" y="95.81" class="st0" width="29.71" height="4.86"/>
<rect x="135.88" y="95.81" class="st1" width="29.71" height="4.86"/>
<rect x="135.88" y="95.81" class="st2" width="1.52" height="4.86"/>
<rect x="135.88" y="95.81" class="st3" width="1.52" height="4.86"/>
<rect x="164.07" y="95.81" class="st2" width="1.52" height="4.86"/>
<rect x="164.07" y="95.81" class="st3" width="1.52" height="4.86"/>
<rect x="151.28" y="90.95" class="st0" width="29.2" height="4.86"/>
<rect x="151.28" y="90.95" class="st1" width="29.2" height="4.86"/>
<rect x="151.28" y="90.95" class="st2" width="1.81" height="4.86"/>
<rect x="151.28" y="90.95" class="st3" width="1.81" height="4.86"/>
<rect x="178.46" y="90.95" class="st2" width="2.02" height="4.86"/>
<rect x="178.46" y="90.95" class="st3" width="2.02" height="4.86"/>
<rect x="168.34" y="95.81" class="st0" width="29.71" height="4.86"/>
<rect x="168.34" y="95.81" class="st1" width="29.71" height="4.86"/>
<rect x="168.34" y="95.81" class="st2" width="2.31" height="4.86"/>
<rect x="168.34" y="95.81" class="st3" width="2.31" height="4.86"/>
<rect x="195.8" y="95.81" class="st2" width="2.24" height="4.86"/>
<rect x="195.8" y="95.81" class="st3" width="2.24" height="4.86"/>
<rect x="188.65" y="90.95" class="st0" width="29.49" height="4.86"/>
<rect x="188.65" y="90.95" class="st1" width="29.49" height="4.86"/>
<rect x="188.65" y="90.95" class="st2" width="2.02" height="4.86"/>
<rect x="188.65" y="90.95" class="st3" width="2.02" height="4.86"/>
<rect x="216.19" y="90.95" class="st2" width="1.95" height="4.86"/>
<rect x="216.19" y="90.95" class="st3" width="1.95" height="4.86"/>
<rect x="209.61" y="95.81" class="st0" width="29.42" height="4.86"/>
<rect x="209.61" y="95.81" class="st1" width="29.42" height="4.86"/>
<rect x="209.61" y="95.81" class="st2" width="1.81" height="4.86"/>
<rect x="209.61" y="95.81" class="st3" width="1.81" height="4.86"/>
<rect x="236.86" y="95.81" class="st2" width="2.17" height="4.86"/>
<rect x="236.86" y="95.81" class="st3" width="2.17" height="4.86"/>
<rect x="231.94" y="90.95" class="st0" width="29.42" height="4.86"/>
<rect x="231.94" y="90.95" class="st1" width="29.42" height="4.86"/>
<rect x="231.94" y="90.95" class="st2" width="2.1" height="4.86"/>
<rect x="231.94" y="90.95" class="st3" width="2.1" height="4.86"/>
<rect x="259.12" y="90.95" class="st2" width="2.24" height="4.86"/>
<rect x="259.12" y="90.95" class="st3" width="2.24" height="4.86"/>
<rect x="254.21" y="95.81" class="st0" width="29.06" height="4.86"/>
<rect x="254.21" y="95.81" class="st1" width="29.06" height="4.86"/>
<rect x="254.21" y="95.81" class="st2" width="2.1" height="4.86"/>
<rect x="254.21" y="95.81" class="st3" width="2.1" height="4.86"/>
<rect x="281.53" y="95.81" class="st2" width="1.73" height="4.86"/>
<rect x="281.53" y="95.81" class="st3" width="1.73" height="4.86"/>
<rect x="272.49" y="90.95" class="st0" width="28.48" height="4.86"/>
<rect x="272.49" y="90.95" class="st1" width="28.48" height="4.86"/>
<rect x="272.49" y="90.95" class="st2" width="1.52" height="4.86"/>
<rect x="272.49" y="90.95" class="st3" width="1.52" height="4.86"/>
<rect x="298.95" y="90.95" class="st2" width="2.02" height="4.86"/>
<rect x="298.95" y="90.95" class="st3" width="2.02" height="4.86"/>
<rect x="293.16" y="95.81" class="st0" width="29.71" height="4.86"/>
<rect x="293.16" y="95.81" class="st1" width="29.71" height="4.86"/>
<rect x="293.16" y="95.81" class="st2" width="2.1" height="4.86"/>
<rect x="293.16" y="95.81" class="st3" width="2.1" height="4.86"/>
<rect x="320.92" y="95.81" class="st2" width="1.95" height="4.86"/>
<rect x="320.92" y="95.81" class="st3" width="1.95" height="4.86"/>
<rect x="315.57" y="90.95" class="st0" width="29.56" height="4.86"/>
<rect x="315.57" y="90.95" class="st1" width="29.56" height="4.86"/>
<rect x="315.57" y="90.95" class="st2" width="1.95" height="4.86"/>
<rect x="315.57" y="90.95" class="st3" width="1.95" height="4.86"/>
<rect x="343.18" y="90.95" class="st2" width="1.95" height="4.86"/>
<rect x="343.18" y="90.95" class="st3" width="1.95" height="4.86"/>
<rect x="337.98" y="95.81" class="st0" width="30.07" height="4.86"/>
<rect x="337.98" y="95.81" class="st1" width="30.07" height="4.86"/>
<rect x="337.98" y="95.81" class="st2" width="2.02" height="4.86"/>
<rect x="337.98" y="95.81" class="st3" width="2.02" height="4.86"/>
<rect x="366.31" y="95.81" class="st2" width="1.73" height="4.86"/>
<rect x="366.31" y="95.81" class="st3" width="1.73" height="4.86"/>
<rect x="361.4" y="90.95" class="st0" width="29.78" height="4.86"/>
<rect x="361.4" y="90.95" class="st1" width="29.78" height="4.86"/>
<rect x="361.4" y="90.95" class="st2" width="1.52" height="4.86"/>
<rect x="361.4" y="90.95" class="st3" width="1.52" height="4.86"/>
<rect x="389.08" y="90.95" class="st2" width="2.1" height="4.86"/>
<rect x="389.08" y="90.95" class="st3" width="2.1" height="4.86"/>
<rect x="376.57" y="95.81" class="st0" width="30.07" height="4.86"/>
<rect x="376.57" y="95.81" class="st1" width="30.07" height="4.86"/>
<rect x="376.57" y="95.81" class="st2" width="2.1" height="4.86"/>
<rect x="376.57" y="95.81" class="st3" width="2.1" height="4.86"/>
<rect x="405.13" y="95.81" class="st2" width="1.52" height="4.86"/>
<rect x="405.13" y="95.81" class="st3" width="1.52" height="4.86"/>
<rect x="400.28" y="90.95" class="st0" width="28.84" height="4.86"/>
<rect x="400.28" y="90.95" class="st1" width="28.84" height="4.86"/>
<rect x="400.28" y="90.95" class="st2" width="2.1" height="4.86"/>
<rect x="400.28" y="90.95" class="st3" width="2.1" height="4.86"/>
<rect x="427.46" y="90.95" class="st2" width="1.66" height="4.86"/>
<rect x="427.46" y="90.95" class="st3" width="1.66" height="4.86"/>
<rect x="422.11" y="95.81" class="st0" width="29.56" height="4.86"/>
<rect x="422.11" y="95.81" class="st1" width="29.56" height="4.86"/>
<rect x="422.11" y="95.81" class="st2" width="2.02" height="4.86"/>
<rect x="422.11" y="95.81" class="st3" width="2.02" height="4.86"/>
<rect x="450.16" y="95.81" class="st2" width="1.52" height="4.86"/>
<rect x="450.16" y="95.81" class="st3" width="1.52" height="4.86"/>
<rect x="443.94" y="90.95" class="st0" width="30.29" height="4.86"/>
<rect x="443.94" y="90.95" class="st1" width="30.29" height="4.86"/>
<rect x="443.94" y="90.95" class="st2" width="2.02" height="4.86"/>
<rect x="443.94" y="90.95" class="st3" width="2.02" height="4.86"/>
<rect x="472.06" y="90.95" class="st2" width="2.17" height="4.86"/>
<rect x="472.06" y="90.95" class="st3" width="2.17" height="4.86"/>
<rect x="460.85" y="95.81" class="st0" width="29.13" height="4.86"/>
<rect x="460.85" y="95.81" class="st1" width="29.13" height="4.86"/>
<rect x="460.85" y="95.81" class="st2" width="1.88" height="4.86"/>
<rect x="460.85" y="95.81" class="st3" width="1.88" height="4.86"/>
<rect x="487.89" y="95.81" class="st2" width="2.1" height="4.86"/>
<rect x="487.89" y="95.81" class="st3" width="2.1" height="4.86"/>
<rect x="482.68" y="90.95" class="st0" width="30.07" height="4.86"/>
<rect x="482.68" y="90.95" class="st1" width="30.07" height="4.86"/>
<rect x="482.68" y="90.95" class="st2" width="2.02" height="4.86"/>
<rect x="482.68" y="90.95" class="st3" width="2.02" height="4.86"/>
<rect x="510.73" y="90.95" class="st2" width="2.02" height="4.86"/>
<rect x="510.73" y="90.95" class="st3" width="2.02" height="4.86"/>
<rect x="516.65" y="95.81" class="st0" width="29.92" height="4.86"/>
<rect x="516.65" y="95.81" class="st1" width="29.92" height="4.86"/>
<rect x="516.65" y="95.81" class="st2" width="2.17" height="4.86"/>
<rect x="516.65" y="95.81" class="st3" width="2.17" height="4.86"/>
<rect x="544.7" y="95.81" class="st2" width="1.88" height="4.86"/>
<rect x="544.7" y="95.81" class="st3" width="1.88" height="4.86"/>
<rect x="534.51" y="90.95" class="st0" width="30.21" height="4.86"/>
<rect x="534.51" y="90.95" class="st1" width="30.21" height="4.86"/>
<rect x="534.51" y="90.95" class="st2" width="2.24" height="4.86"/>
<rect x="534.51" y="90.95" class="st3" width="2.24" height="4.86"/>
<rect x="562.41" y="90.95" class="st2" width="2.31" height="4.86"/>
<rect x="562.41" y="90.95" class="st3" width="2.31" height="4.86"/>
<rect x="557.42" y="95.81" class="st0" width="28.98" height="4.86"/>
<rect x="557.42" y="95.81" class="st1" width="28.98" height="4.86"/>
<rect x="557.42" y="95.81" class="st2" width="2.17" height="4.86"/>
<rect x="557.42" y="95.81" class="st3" width="2.17" height="4.86"/>
<rect x="584.52" y="95.81" class="st2" width="1.88" height="4.86"/>
<rect x="584.52" y="95.81" class="st3" width="1.88" height="4.86"/>
<rect x="572.74" y="90.95" class="st0" width="28.77" height="4.86"/>
<rect x="572.74" y="90.95" class="st1" width="28.77" height="4.86"/>
<rect x="572.74" y="90.95" class="st2" width="1.95" height="4.86"/>
<rect x="572.74" y="90.95" class="st3" width="1.95" height="4.86"/>
<rect x="599.56" y="90.95" class="st2" width="1.95" height="4.86"/>
<rect x="599.56" y="90.95" class="st3" width="1.95" height="4.86"/>
<rect x="594.43" y="95.81" class="st0" width="29.42" height="4.86"/>
<rect x="594.43" y="95.81" class="st1" width="29.42" height="4.86"/>
<rect x="594.43" y="95.81" class="st2" width="2.31" height="4.86"/>
<rect x="594.43" y="95.81" class="st3" width="2.31" height="4.86"/>
<rect x="621.82" y="95.81" class="st2" width="2.02" height="4.86"/>
<rect x="621.82" y="95.81" class="st3" width="2.02" height="4.86"/>
<rect x="614.3" y="90.95" class="st0" width="29.42" height="4.86"/>
<rect x="614.3" y="90.95" class="st1" width="29.42" height="4.86"/>
<rect x="614.3" y="90.95" class="st2" width="1.59" height="4.86"/>
<rect x="614.3" y="90.95" class="st3" width="1.59" height="4.86"/>
<rect x="642.13" y="90.95" class="st2" width="1.59" height="4.86"/>
<rect x="642.13" y="90.95" class="st3" width="1.59" height="4.86"/>
<line class="st4" x1="664.73" y1="101.24" x2="664.73" y2="91.52"/>
<line class="st4" x1="107.62" y1="95.81" x2="664.73" y2="95.81"/>
<line class="st4" x1="107.62" y1="100.67" x2="107.62" y2="90.95"/>
<line class="st4" x1="290.42" y1="95.81" x2="290.42" y2="94.35"/>
<text transform="matrix(1 0 0 1 114.2004 100.6681)" class="st5 st6 st7">24</text>
<text transform="matrix(1 0 0 1 128.2949 90.9481)" class="st5 st6 st7">25</text>
<text transform="matrix(1 0 0 1 150.7377 100.6681)" class="st5 st6 st7">26</text>
<text transform="matrix(1 0 0 1 165.8802 90.9481)" class="st5 st6 st7">27</text>
<text transform="matrix(1 0 0 1 183.1911 100.6681)" class="st5 st6 st7">28</text>
<text transform="matrix(1 0 0 1 203.3932 90.9481)" class="st5 st6 st7">29</text>
<text transform="matrix(1 0 0 1 224.3181 100.6681)" class="st5 st6 st7">30</text>
<text transform="matrix(1 0 0 1 246.6526 90.9481)" class="st5 st6 st7">31</text>
<text transform="matrix(1 0 0 1 268.7339 100.6681)" class="st5 st6 st7">32</text>
<text transform="matrix(1 0 0 1 286.7316 90.9481)" class="st5 st6 st7">33</text>
<text transform="matrix(1 0 0 1 308.0179 100.6681)" class="st5 st6 st7">34</text>
<text transform="matrix(1 0 0 1 330.3522 90.9481)" class="st5 st6 st7">35</text>
<text transform="matrix(1 0 0 1 353.0117 100.6681)" class="st5 st6 st7">36</text>
<text transform="matrix(1 0 0 1 376.2857 90.9481)" class="st5 st6 st7">37</text>
<text transform="matrix(1 0 0 1 391.609 100.6681)" class="st5 st6 st7">38</text>
<text transform="matrix(1 0 0 1 414.7023 90.9481)" class="st5 st6 st7">39</text>
<text transform="matrix(1 0 0 1 436.8921 100.6681)" class="st5 st6 st7">40</text>
<text transform="matrix(1 0 0 1 459.0819 90.9481)" class="st5 st6 st7">41</text>
<text transform="matrix(1 0 0 1 475.417 100.6681)" class="st5 st6 st7">42</text>
<text transform="matrix(1 0 0 1 497.7153 90.9481)" class="st5 st6 st7">43</text>
<text transform="matrix(1 0 0 1 531.6143 100.6681)" class="st5 st6 st7">44</text>
<text transform="matrix(1 0 0 1 549.6119 90.9481)" class="st5 st6 st7">45</text>
<text transform="matrix(1 0 0 1 571.9102 100.6681)" class="st5 st6 st7">46</text>
<text transform="matrix(1 0 0 1 587.125 90.9481)" class="st5 st6 st7">47</text>
<text transform="matrix(1 0 0 1 609.1342 100.6681)" class="st5 st6 st7">48</text>
<text transform="matrix(1 0 0 1 629.011 90.9481)" class="st5 st6 st7">49</text>
<text transform="matrix(1 0 0 1 645.6105 101.2443)" class="st5 st6 st7">50</text>
</svg>
